<svg width="142" height="32" viewBox="0 0 142 32" fill="none" xmlns="http://www.w3.org/2000/svg">
<g clip-path="url(#clip0_620_609)">
<path d="M16 22.4C12.4654 22.4 9.60002 19.5346 9.60002 16C9.60002 12.4654 12.4654 9.60002 16 9.60002C19.5346 9.60002 22.4 12.4654 22.4 16C22.4 19.5346 19.5346 22.4 16 22.4Z" fill="#CABDFF"/>
<path d="M3.65288 18.5864C1.81841 18.9039 0.560975 20.6436 1.26517 22.3367C2.24831 24.7003 3.81679 26.8062 5.8502 28.4519C8.75783 30.8048 12.4252 32.0621 16.1928 31.9976C19.9604 31.9331 23.5809 30.5508 26.4032 28.0996C28.3768 26.3854 29.8695 24.227 30.7681 21.8311C31.4116 20.115 30.093 18.4194 28.2484 18.1649C26.4038 17.9104 24.7476 19.2285 23.8365 20.8236C23.3426 21.6882 22.7014 22.4726 21.9333 23.1397C20.3141 24.5462 18.2368 25.3392 16.0752 25.3762C13.9135 25.4132 11.8093 24.6919 10.141 23.3418C9.34962 22.7014 8.68103 21.9395 8.15669 21.0923C7.18942 19.5294 5.48736 18.2688 3.65288 18.5864Z" fill="#CABDFF"/>
<path d="M31.8763 17.5921C31.958 16.9518 32 16.2996 32 15.6378C32 7.0013 24.8366 0 16 0C7.16345 0 0 7.0013 0 15.6378C0 16.4872 0.06928 17.3207 0.202624 18.1333C0.937536 17.15 2.08454 16.4481 3.32348 16.2346C4.66395 16.0036 5.88222 16.3213 6.91229 16.9152C6.85144 16.498 6.81995 16.0715 6.81995 15.6378C6.81995 10.6826 10.93 6.66558 16 6.66558C21.07 6.66558 25.1801 10.6826 25.1801 15.6378C25.1801 15.9646 25.1621 16.2872 25.1274 16.6049C26.1357 15.9759 27.3421 15.6166 28.6902 15.8018C29.9357 15.9729 31.1067 16.6349 31.8763 17.5921Z" fill="#5429FF"/>
</g>
<path d="M50.6705 10.3636V22H49.0568L43.142 13.4659H43.0341V22H41.2784V10.3636H42.9034L48.8239 18.9091H48.9318V10.3636H50.6705ZM53.3915 22V10.3636H60.6074V11.875H55.1472V15.4205H60.0904V16.9261H55.1472V22H53.3915ZM62.3527 11.875V10.3636H71.3584V11.875H67.7277V22H65.9777V11.875H62.3527ZM78.8857 22H77.0221L81.2096 10.3636H83.238L87.4255 22H85.5619L82.2721 12.4773H82.1812L78.8857 22ZM79.1982 17.4432H85.2437V18.9205H79.1982V17.4432ZM89.1295 22V13.2727H90.7716V14.6591H90.8625C91.0216 14.1894 91.3019 13.8201 91.7034 13.5511C92.1087 13.2784 92.567 13.142 93.0784 13.142C93.1845 13.142 93.3095 13.1458 93.4534 13.1534C93.6011 13.161 93.7167 13.1705 93.8 13.1818V14.8068C93.7318 14.7879 93.6106 14.767 93.4364 14.7443C93.2621 14.7178 93.0879 14.7045 92.9136 14.7045C92.5121 14.7045 92.1542 14.7898 91.8398 14.9602C91.5292 15.1269 91.283 15.3598 91.1011 15.6591C90.9193 15.9545 90.8284 16.2917 90.8284 16.6705V22H89.1295ZM100.02 13.2727V14.6364H95.2526V13.2727H100.02ZM96.531 11.1818H98.2299V19.4375C98.2299 19.767 98.2791 20.0152 98.3776 20.1818C98.4761 20.3447 98.603 20.4564 98.7583 20.517C98.9174 20.5739 99.0897 20.6023 99.2753 20.6023C99.4117 20.6023 99.531 20.5928 99.6333 20.5739C99.7356 20.5549 99.8151 20.5398 99.8719 20.5284L100.179 21.9318C100.08 21.9697 99.9401 22.0076 99.7583 22.0455C99.5765 22.0871 99.3492 22.1098 99.0765 22.1136C98.6295 22.1212 98.2128 22.0417 97.8265 21.875C97.4401 21.7083 97.1276 21.4508 96.889 21.1023C96.6503 20.7538 96.531 20.3163 96.531 19.7898V11.1818ZM103.087 10.3636L106.326 19.8409H106.457L109.695 10.3636H111.593L107.406 22H105.377L101.19 10.3636H103.087ZM113.297 22V13.2727H114.996V22H113.297ZM114.155 11.9261C113.86 11.9261 113.606 11.8277 113.394 11.6307C113.185 11.4299 113.081 11.1913 113.081 10.9148C113.081 10.6345 113.185 10.3958 113.394 10.1989C113.606 9.99811 113.86 9.89773 114.155 9.89773C114.45 9.89773 114.702 9.99811 114.911 10.1989C115.123 10.3958 115.229 10.6345 115.229 10.9148C115.229 11.1913 115.123 11.4299 114.911 11.6307C114.702 11.8277 114.45 11.9261 114.155 11.9261ZM123.981 15.4034L122.441 15.6761C122.377 15.4792 122.275 15.2917 122.135 15.1136C121.998 14.9356 121.813 14.7898 121.578 14.6761C121.343 14.5625 121.049 14.5057 120.697 14.5057C120.216 14.5057 119.815 14.6136 119.493 14.8295C119.171 15.0417 119.01 15.3163 119.01 15.6534C119.01 15.9451 119.118 16.1799 119.333 16.358C119.549 16.536 119.898 16.6818 120.379 16.7955L121.765 17.1136C122.568 17.2992 123.167 17.5852 123.561 17.9716C123.955 18.358 124.152 18.8598 124.152 19.4773C124.152 20 124 20.4659 123.697 20.875C123.398 21.2803 122.979 21.5985 122.441 21.8295C121.907 22.0606 121.288 22.1761 120.583 22.1761C119.606 22.1761 118.809 21.9678 118.191 21.5511C117.574 21.1307 117.195 20.5341 117.055 19.7614L118.697 19.5114C118.799 19.9394 119.01 20.2633 119.328 20.483C119.646 20.6989 120.061 20.8068 120.572 20.8068C121.129 20.8068 121.574 20.6913 121.907 20.4602C122.241 20.2254 122.407 19.9394 122.407 19.6023C122.407 19.3295 122.305 19.1004 122.101 18.9148C121.9 18.7292 121.591 18.589 121.174 18.4943L119.697 18.1705C118.883 17.9848 118.28 17.6894 117.89 17.2841C117.504 16.8788 117.311 16.3655 117.311 15.7443C117.311 15.2292 117.455 14.7784 117.743 14.392C118.03 14.0057 118.428 13.7045 118.936 13.4886C119.443 13.2689 120.025 13.1591 120.68 13.1591C121.623 13.1591 122.366 13.3636 122.907 13.7727C123.449 14.178 123.807 14.7216 123.981 15.4034ZM130.253 13.2727V14.6364H125.486V13.2727H130.253ZM126.765 11.1818H128.464V19.4375C128.464 19.767 128.513 20.0152 128.611 20.1818C128.71 20.3447 128.837 20.4564 128.992 20.517C129.151 20.5739 129.323 20.6023 129.509 20.6023C129.645 20.6023 129.765 20.5928 129.867 20.5739C129.969 20.5549 130.049 20.5398 130.106 20.5284L130.412 21.9318C130.314 21.9697 130.174 22.0076 129.992 22.0455C129.81 22.0871 129.583 22.1098 129.31 22.1136C128.863 22.1212 128.447 22.0417 128.06 21.875C127.674 21.7083 127.361 21.4508 127.123 21.1023C126.884 20.7538 126.765 20.3163 126.765 19.7898V11.1818ZM134.832 22.1932C134.279 22.1932 133.779 22.0909 133.332 21.8864C132.885 21.678 132.531 21.3769 132.27 20.983C132.012 20.589 131.884 20.1061 131.884 19.5341C131.884 19.0417 131.978 18.6364 132.168 18.3182C132.357 18 132.613 17.7481 132.935 17.5625C133.257 17.3769 133.617 17.2367 134.014 17.142C134.412 17.0473 134.817 16.9754 135.23 16.9261C135.753 16.8655 136.177 16.8163 136.503 16.7784C136.829 16.7367 137.065 16.6705 137.213 16.5795C137.361 16.4886 137.435 16.3409 137.435 16.1364V16.0966C137.435 15.6004 137.295 15.2159 137.014 14.9432C136.738 14.6705 136.325 14.5341 135.776 14.5341C135.204 14.5341 134.753 14.661 134.423 14.9148C134.098 15.1648 133.872 15.4432 133.747 15.75L132.151 15.3864C132.34 14.8561 132.617 14.428 132.98 14.1023C133.348 13.7727 133.77 13.5341 134.247 13.3864C134.724 13.2348 135.226 13.1591 135.753 13.1591C136.101 13.1591 136.471 13.2008 136.861 13.2841C137.255 13.3636 137.622 13.5114 137.963 13.7273C138.308 13.9432 138.59 14.2519 138.81 14.6534C139.029 15.0511 139.139 15.5682 139.139 16.2045V22H137.48V20.8068H137.412C137.302 21.0265 137.137 21.2424 136.918 21.4545C136.698 21.6667 136.416 21.8428 136.071 21.983C135.726 22.1231 135.314 22.1932 134.832 22.1932ZM135.202 20.8295C135.671 20.8295 136.073 20.7367 136.406 20.5511C136.743 20.3655 136.999 20.1231 137.173 19.8239C137.351 19.5208 137.44 19.197 137.44 18.8523V17.7273C137.38 17.7879 137.262 17.8447 137.088 17.8977C136.918 17.947 136.723 17.9905 136.503 18.0284C136.283 18.0625 136.069 18.0947 135.861 18.125C135.653 18.1515 135.478 18.1742 135.338 18.1932C135.009 18.2348 134.707 18.3049 134.435 18.4034C134.166 18.5019 133.95 18.6439 133.787 18.8295C133.628 19.0114 133.548 19.2538 133.548 19.5568C133.548 19.9773 133.704 20.2955 134.014 20.5114C134.325 20.7235 134.721 20.8295 135.202 20.8295Z" fill="#262F3D"/>
<defs>
<clipPath id="clip0_620_609">
<rect width="32" height="32" fill="white"/>
</clipPath>
</defs>
</svg>
