<svg width="19" height="19" viewBox="0 0 19 19" fill="none" xmlns="http://www.w3.org/2000/svg">
<path d="M9.24996 17.5364C4.67892 17.5364 0.963501 13.821 0.963501 9.24999C0.963501 4.67895 4.67892 0.963531 9.24996 0.963531C13.821 0.963531 17.5364 4.67895 17.5364 9.24999C17.5364 13.821 13.821 17.5364 9.24996 17.5364ZM9.24996 2.11978C5.31871 2.11978 2.11975 5.31874 2.11975 9.24999C2.11975 13.1812 5.31871 16.3802 9.24996 16.3802C13.1812 16.3802 16.3802 13.1812 16.3802 9.24999C16.3802 5.31874 13.1812 2.11978 9.24996 2.11978Z" fill="#A4A9B2"/>
<path d="M7.06851 12.0096C6.92205 12.0096 6.77559 11.9556 6.65997 11.84C6.43642 11.6165 6.43642 11.2465 6.65997 11.0229L11.0229 6.66C11.2464 6.43645 11.6164 6.43645 11.84 6.66C12.0635 6.88354 12.0635 7.25354 11.84 7.47708L7.47705 11.84C7.36913 11.9556 7.21497 12.0096 7.06851 12.0096Z" fill="#A4A9B2"/>
<path d="M11.4314 12.0096C11.285 12.0096 11.1385 11.9556 11.0229 11.84L6.65997 7.47708C6.43642 7.25354 6.43642 6.88354 6.65997 6.66C6.88351 6.43645 7.25351 6.43645 7.47705 6.66L11.84 11.0229C12.0635 11.2465 12.0635 11.6165 11.84 11.84C11.7243 11.9556 11.5779 12.0096 11.4314 12.0096Z" fill="#A4A9B2"/>
</svg>
