<svg width="19" height="19" viewBox="0 0 19 19" fill="none" xmlns="http://www.w3.org/2000/svg">
<path d="M7.29985 11.7783C7.1534 11.7783 7.00694 11.7243 6.89131 11.6087C6.25923 10.9766 5.91235 10.1364 5.91235 9.24997C5.91235 7.40768 7.40777 5.91226 9.25006 5.91226C10.1365 5.91226 10.9767 6.25914 11.6088 6.89122C11.7167 6.99914 11.7784 7.1456 11.7784 7.29976C11.7784 7.45393 11.7167 7.60039 11.6088 7.7083L7.7084 11.6087C7.59277 11.7243 7.44631 11.7783 7.29985 11.7783ZM9.25006 7.06851C8.04756 7.06851 7.0686 8.04747 7.0686 9.24997C7.0686 9.63539 7.16881 10.0054 7.35381 10.3291L10.3292 7.35372C10.0055 7.16872 9.63548 7.06851 9.25006 7.06851Z" fill="#A4A9B2"/>
<path d="M4.31667 14.268C4.18563 14.268 4.04688 14.2218 3.93896 14.1293C3.11417 13.4278 2.37417 12.5645 1.74208 11.5624C0.925002 10.2905 0.925002 8.217 1.74208 6.93741C3.62292 3.99283 6.35938 2.297 9.25 2.297C10.9458 2.297 12.6185 2.88283 14.0831 3.98512C14.3375 4.17783 14.3915 4.54012 14.1988 4.7945C14.006 5.04887 13.6438 5.10283 13.3894 4.91012C12.1252 3.95429 10.6915 3.45325 9.25 3.45325C6.76021 3.45325 4.37833 4.94866 2.71333 7.56179C2.13521 8.46366 2.13521 10.0362 2.71333 10.938C3.29146 11.8399 3.95438 12.6185 4.68667 13.2505C4.92563 13.4587 4.95646 13.821 4.74833 14.0676C4.64042 14.1987 4.47854 14.268 4.31667 14.268Z" fill="#A4A9B2"/>
<path d="M9.24998 16.203C8.22477 16.203 7.22269 15.9948 6.25914 15.5863C5.96623 15.463 5.82748 15.1238 5.95081 14.8309C6.07414 14.538 6.41331 14.3992 6.70623 14.5225C7.52331 14.8694 8.37894 15.0467 9.24227 15.0467C11.7321 15.0467 14.1139 13.5513 15.7789 10.9382C16.3571 10.0363 16.3571 8.46379 15.7789 7.56191C15.54 7.18421 15.2779 6.82191 15.0004 6.48275C14.8 6.23608 14.8385 5.87379 15.0852 5.66566C15.3319 5.46525 15.6941 5.49608 15.9023 5.75046C16.2029 6.12046 16.4958 6.52129 16.7579 6.93754C17.575 8.20941 17.575 10.283 16.7579 11.5625C14.8771 14.5071 12.1406 16.203 9.24998 16.203Z" fill="#A4A9B2"/>
<path d="M9.78193 12.5415C9.51213 12.5415 9.26547 12.3488 9.21151 12.0713C9.14984 11.7552 9.35797 11.4546 9.67401 11.4006C10.5219 11.2465 11.2311 10.5373 11.3853 9.6894C11.4469 9.37335 11.7476 9.17294 12.0636 9.2269C12.3796 9.28856 12.5878 9.58919 12.5261 9.90523C12.2794 11.2388 11.2157 12.2948 9.88984 12.5415C9.8513 12.5338 9.82047 12.5415 9.78193 12.5415Z" fill="#A4A9B2"/>
<path d="M1.54165 17.5364C1.39519 17.5364 1.24874 17.4825 1.13311 17.3669C0.909569 17.1433 0.909569 16.7733 1.13311 16.5498L6.89123 10.7916C7.11478 10.5681 7.48478 10.5681 7.70832 10.7916C7.93186 11.0152 7.93186 11.3852 7.70832 11.6087L1.95019 17.3669C1.83457 17.4825 1.68811 17.5364 1.54165 17.5364Z" fill="#A4A9B2"/>
<path d="M11.2002 7.8779C11.0538 7.8779 10.9073 7.82394 10.7917 7.70832C10.5681 7.48478 10.5681 7.11478 10.7917 6.89123L16.5498 1.13311C16.7733 0.909569 17.1433 0.909569 17.3669 1.13311C17.5904 1.35665 17.5904 1.72665 17.3669 1.95019L11.6088 7.70832C11.4931 7.82394 11.3467 7.8779 11.2002 7.8779Z" fill="#A4A9B2"/>
</svg>
