<svg width="180" height="24" viewBox="0 0 180 24" fill="none" xmlns="http://www.w3.org/2000/svg">
<g clip-path="url(#clip0_620_588)">
<path d="M22.501 12.2332C22.501 11.3699 22.4296 10.7399 22.2748 10.0865H12.2153V13.9832H18.12C18.001 14.9515 17.3582 16.4099 15.9296 17.3898L15.9096 17.5203L19.0902 19.935L19.3106 19.9565C21.3343 18.1249 22.501 15.4298 22.501 12.2332Z" fill="#4285F4"/>
<path d="M12.214 22.5C15.1068 22.5 17.5353 21.5666 19.3092 19.9567L15.9282 17.3899C15.0235 18.0083 13.8092 18.4399 12.214 18.4399C9.38069 18.4399 6.97596 16.6083 6.11874 14.0766L5.99309 14.0871L2.68583 16.5954L2.64258 16.7132C4.40446 20.1433 8.0235 22.5 12.214 22.5Z" fill="#34A853"/>
<path d="M6.12046 14.0767C5.89428 13.4234 5.76337 12.7233 5.76337 12C5.76337 11.2767 5.89428 10.5767 6.10856 9.92337L6.10257 9.78423L2.75386 7.2356L2.64429 7.28667C1.91814 8.71002 1.50146 10.3084 1.50146 12C1.50146 13.6917 1.91814 15.29 2.64429 16.7133L6.12046 14.0767Z" fill="#FBBC05"/>
<path d="M12.2141 5.55997C14.2259 5.55997 15.583 6.41163 16.3569 7.12335L19.3807 4.23C17.5236 2.53834 15.1069 1.5 12.2141 1.5C8.02353 1.5 4.40447 3.85665 2.64258 7.28662L6.10686 9.92332C6.97598 7.39166 9.38073 5.55997 12.2141 5.55997Z" fill="#EB4335"/>
</g>
<path d="M39.625 8.92045C39.5644 8.38258 39.3144 7.96591 38.875 7.67045C38.4356 7.37121 37.8826 7.22159 37.2159 7.22159C36.7386 7.22159 36.3258 7.29735 35.9773 7.44886C35.6288 7.59659 35.358 7.80114 35.1648 8.0625C34.9754 8.32008 34.8807 8.61364 34.8807 8.94318C34.8807 9.2197 34.9451 9.45833 35.0739 9.65909C35.2064 9.85985 35.3788 10.0284 35.5909 10.1648C35.8068 10.2973 36.0379 10.4091 36.2841 10.5C36.5303 10.5871 36.767 10.6591 36.9943 10.7159L38.1307 11.0114C38.5019 11.1023 38.8826 11.2254 39.2727 11.3807C39.6629 11.536 40.0246 11.7405 40.358 11.9943C40.6913 12.2481 40.9602 12.5625 41.1648 12.9375C41.3731 13.3125 41.4773 13.7614 41.4773 14.2841C41.4773 14.9432 41.3068 15.5284 40.9659 16.0398C40.6288 16.5511 40.1383 16.9545 39.4943 17.25C38.8542 17.5455 38.0795 17.6932 37.1705 17.6932C36.2992 17.6932 35.5455 17.5549 34.9091 17.2784C34.2727 17.0019 33.7746 16.6098 33.4148 16.1023C33.0549 15.5909 32.8561 14.9848 32.8182 14.2841H34.5795C34.6136 14.7045 34.75 15.0549 34.9886 15.3352C35.2311 15.6117 35.5398 15.8182 35.9148 15.9545C36.2936 16.0871 36.7083 16.1534 37.1591 16.1534C37.6553 16.1534 38.0966 16.0758 38.483 15.9205C38.8731 15.7614 39.1799 15.5417 39.4034 15.2614C39.6269 14.9773 39.7386 14.6458 39.7386 14.267C39.7386 13.9223 39.6402 13.6402 39.4432 13.4205C39.25 13.2008 38.9867 13.0189 38.6534 12.875C38.3239 12.7311 37.9508 12.6042 37.5341 12.4943L36.1591 12.1193C35.2273 11.8655 34.4886 11.4924 33.9432 11C33.4015 10.5076 33.1307 9.85606 33.1307 9.04545C33.1307 8.375 33.3125 7.78977 33.6761 7.28977C34.0398 6.78977 34.5322 6.40151 35.1534 6.125C35.7746 5.8447 36.4754 5.70455 37.2557 5.70455C38.0436 5.70455 38.7386 5.8428 39.3409 6.11932C39.947 6.39583 40.4242 6.77652 40.7727 7.26136C41.1212 7.74242 41.303 8.29545 41.3182 8.92045H39.625ZM43.4389 17.5V8.77273H45.1378V17.5H43.4389ZM44.2969 7.42614C44.0014 7.42614 43.7476 7.32765 43.5355 7.13068C43.3272 6.92992 43.223 6.69129 43.223 6.41477C43.223 6.13447 43.3272 5.89583 43.5355 5.69886C43.7476 5.49811 44.0014 5.39773 44.2969 5.39773C44.5923 5.39773 44.8442 5.49811 45.0526 5.69886C45.2647 5.89583 45.3707 6.13447 45.3707 6.41477C45.3707 6.69129 45.2647 6.92992 45.0526 7.13068C44.8442 7.32765 44.5923 7.42614 44.2969 7.42614ZM51.0824 20.9545C50.3892 20.9545 49.7926 20.8636 49.2926 20.6818C48.7964 20.5 48.3911 20.2595 48.0767 19.9602C47.7623 19.661 47.5275 19.3333 47.3722 18.9773L48.8324 18.375C48.9347 18.5417 49.071 18.7178 49.2415 18.9034C49.4157 19.0928 49.6506 19.2538 49.946 19.3864C50.2453 19.5189 50.6297 19.5852 51.0994 19.5852C51.7434 19.5852 52.2756 19.428 52.696 19.1136C53.1165 18.803 53.3267 18.3068 53.3267 17.625V15.9091H53.2188C53.1165 16.0947 52.9688 16.3011 52.7756 16.5284C52.5862 16.7557 52.3248 16.9527 51.9915 17.1193C51.6581 17.286 51.2244 17.3693 50.6903 17.3693C50.0009 17.3693 49.3797 17.2083 48.8267 16.8864C48.2775 16.5606 47.8419 16.0814 47.5199 15.4489C47.2017 14.8125 47.0426 14.0303 47.0426 13.1023C47.0426 12.1742 47.1998 11.3788 47.5142 10.7159C47.8324 10.053 48.268 9.54545 48.821 9.19318C49.3741 8.83712 50.0009 8.65909 50.7017 8.65909C51.2434 8.65909 51.6809 8.75 52.0142 8.93182C52.3475 9.10985 52.607 9.31818 52.7926 9.55682C52.982 9.79545 53.1278 10.0057 53.2301 10.1875H53.3551V8.77273H55.0199V17.6932C55.0199 18.4432 54.8456 19.0587 54.4972 19.5398C54.1487 20.0208 53.6771 20.3769 53.0824 20.608C52.4915 20.839 51.8248 20.9545 51.0824 20.9545ZM51.0653 15.9602C51.554 15.9602 51.9669 15.8466 52.304 15.6193C52.6449 15.3883 52.9025 15.0587 53.0767 14.6307C53.2547 14.1989 53.3438 13.6818 53.3438 13.0795C53.3438 12.4924 53.2566 11.9754 53.0824 11.5284C52.9081 11.0814 52.6525 10.733 52.3153 10.483C51.9782 10.2292 51.5616 10.1023 51.0653 10.1023C50.554 10.1023 50.1278 10.2348 49.7869 10.5C49.446 10.7614 49.1884 11.1174 49.0142 11.5682C48.8438 12.0189 48.7585 12.5227 48.7585 13.0795C48.7585 13.6515 48.8456 14.1534 49.0199 14.5852C49.1941 15.017 49.4517 15.3542 49.7926 15.5966C50.1373 15.839 50.5616 15.9602 51.0653 15.9602ZM58.9972 12.3182V17.5H57.2983V8.77273H58.929V10.1932H59.0369C59.2377 9.73106 59.5521 9.35985 59.9801 9.07955C60.4119 8.79924 60.9555 8.65909 61.6108 8.65909C62.2055 8.65909 62.7263 8.78409 63.1733 9.03409C63.6203 9.2803 63.9669 9.64773 64.2131 10.1364C64.4593 10.625 64.5824 11.2292 64.5824 11.9489V17.5H62.8835V12.1534C62.8835 11.5208 62.7188 11.0265 62.3892 10.6705C62.0597 10.3106 61.607 10.1307 61.0312 10.1307C60.6373 10.1307 60.2869 10.2159 59.9801 10.3864C59.6771 10.5568 59.4366 10.8068 59.2585 11.1364C59.0843 11.4621 58.9972 11.8561 58.9972 12.3182ZM71.0952 17.5V8.77273H72.794V17.5H71.0952ZM71.9531 7.42614C71.6577 7.42614 71.4039 7.32765 71.1918 7.13068C70.9834 6.92992 70.8793 6.69129 70.8793 6.41477C70.8793 6.13447 70.9834 5.89583 71.1918 5.69886C71.4039 5.49811 71.6577 5.39773 71.9531 5.39773C72.2486 5.39773 72.5005 5.49811 72.7088 5.69886C72.9209 5.89583 73.027 6.13447 73.027 6.41477C73.027 6.69129 72.9209 6.92992 72.7088 7.13068C72.5005 7.32765 72.2486 7.42614 71.9531 7.42614ZM76.7784 12.3182V17.5H75.0795V8.77273H76.7102V10.1932H76.8182C77.0189 9.73106 77.3333 9.35985 77.7614 9.07955C78.1932 8.79924 78.7367 8.65909 79.392 8.65909C79.9867 8.65909 80.5076 8.78409 80.9545 9.03409C81.4015 9.2803 81.7481 9.64773 81.9943 10.1364C82.2405 10.625 82.3636 11.2292 82.3636 11.9489V17.5H80.6648V12.1534C80.6648 11.5208 80.5 11.0265 80.1705 10.6705C79.8409 10.3106 79.3883 10.1307 78.8125 10.1307C78.4186 10.1307 78.0682 10.2159 77.7614 10.3864C77.4583 10.5568 77.2178 10.8068 77.0398 11.1364C76.8655 11.4621 76.7784 11.8561 76.7784 12.3182ZM90.7685 17.5L88.2003 8.77273H89.956L91.6662 15.1818H91.7514L93.4673 8.77273H95.223L96.9276 15.1534H97.0128L98.7116 8.77273H100.467L97.9048 17.5H96.1719L94.3991 11.1989H94.2685L92.4957 17.5H90.7685ZM102.08 17.5V8.77273H103.778V17.5H102.08ZM102.938 7.42614C102.642 7.42614 102.388 7.32765 102.176 7.13068C101.968 6.92992 101.864 6.69129 101.864 6.41477C101.864 6.13447 101.968 5.89583 102.176 5.69886C102.388 5.49811 102.642 5.39773 102.938 5.39773C103.233 5.39773 103.485 5.49811 103.693 5.69886C103.905 5.89583 104.011 6.13447 104.011 6.41477C104.011 6.69129 103.905 6.92992 103.693 7.13068C103.485 7.32765 103.233 7.42614 102.938 7.42614ZM110.138 8.77273V10.1364H105.371V8.77273H110.138ZM106.649 6.68182H108.348V14.9375C108.348 15.267 108.397 15.5152 108.496 15.6818C108.594 15.8447 108.721 15.9564 108.876 16.017C109.036 16.0739 109.208 16.1023 109.393 16.1023C109.53 16.1023 109.649 16.0928 109.751 16.0739C109.854 16.0549 109.933 16.0398 109.99 16.0284L110.297 17.4318C110.198 17.4697 110.058 17.5076 109.876 17.5455C109.695 17.5871 109.467 17.6098 109.195 17.6136C108.748 17.6212 108.331 17.5417 107.945 17.375C107.558 17.2083 107.246 16.9508 107.007 16.6023C106.768 16.2538 106.649 15.8163 106.649 15.2898V6.68182ZM113.903 12.3182V17.5H112.205V5.86364H113.881V10.1932H113.989C114.193 9.72348 114.506 9.35038 114.926 9.07386C115.347 8.79735 115.896 8.65909 116.574 8.65909C117.172 8.65909 117.695 8.7822 118.142 9.02841C118.593 9.27462 118.941 9.64205 119.188 10.1307C119.438 10.6155 119.562 11.2216 119.562 11.9489V17.5H117.864V12.1534C117.864 11.5133 117.699 11.017 117.369 10.6648C117.04 10.3087 116.581 10.1307 115.994 10.1307C115.593 10.1307 115.233 10.2159 114.915 10.3864C114.6 10.5568 114.352 10.8068 114.17 11.1364C113.992 11.4621 113.903 11.8561 113.903 12.3182ZM134.075 9.53977C133.965 9.19508 133.818 8.88636 133.632 8.61364C133.45 8.33712 133.232 8.10227 132.979 7.90909C132.725 7.71212 132.435 7.5625 132.109 7.46023C131.787 7.35795 131.433 7.30682 131.047 7.30682C130.392 7.30682 129.801 7.47538 129.274 7.8125C128.748 8.14962 128.331 8.64394 128.024 9.29545C127.721 9.94318 127.57 10.7367 127.57 11.6761C127.57 12.6193 127.723 13.4167 128.03 14.0682C128.337 14.7197 128.757 15.214 129.291 15.5511C129.825 15.8883 130.433 16.0568 131.115 16.0568C131.748 16.0568 132.299 15.928 132.768 15.6705C133.242 15.4129 133.607 15.0492 133.865 14.5795C134.126 14.1061 134.257 13.5492 134.257 12.9091L134.712 12.9943H131.382V11.5455H135.956V12.8693C135.956 13.8466 135.748 14.6951 135.331 15.4148C134.918 16.1307 134.346 16.6837 133.615 17.0739C132.888 17.464 132.054 17.6591 131.115 17.6591C130.062 17.6591 129.138 17.4167 128.342 16.9318C127.551 16.447 126.933 15.7595 126.49 14.8693C126.047 13.9754 125.825 12.9148 125.825 11.6875C125.825 10.7595 125.954 9.92614 126.212 9.1875C126.469 8.44886 126.831 7.82197 127.297 7.30682C127.767 6.78788 128.318 6.39205 128.95 6.11932C129.587 5.8428 130.282 5.70455 131.036 5.70455C131.664 5.70455 132.25 5.79735 132.791 5.98295C133.337 6.16856 133.821 6.43182 134.246 6.77273C134.674 7.11364 135.028 7.51894 135.308 7.98864C135.589 8.45455 135.778 8.97159 135.876 9.53977H134.075ZM141.724 17.6761C140.906 17.6761 140.192 17.4886 139.582 17.1136C138.973 16.7386 138.499 16.214 138.162 15.5398C137.825 14.8655 137.656 14.0777 137.656 13.1761C137.656 12.2708 137.825 11.4792 138.162 10.8011C138.499 10.1231 138.973 9.59659 139.582 9.22159C140.192 8.84659 140.906 8.65909 141.724 8.65909C142.543 8.65909 143.257 8.84659 143.866 9.22159C144.476 9.59659 144.95 10.1231 145.287 10.8011C145.624 11.4792 145.793 12.2708 145.793 13.1761C145.793 14.0777 145.624 14.8655 145.287 15.5398C144.95 16.214 144.476 16.7386 143.866 17.1136C143.257 17.4886 142.543 17.6761 141.724 17.6761ZM141.73 16.25C142.26 16.25 142.7 16.1098 143.048 15.8295C143.397 15.5492 143.654 15.1761 143.821 14.7102C143.991 14.2443 144.077 13.7311 144.077 13.1705C144.077 12.6136 143.991 12.1023 143.821 11.6364C143.654 11.1667 143.397 10.7898 143.048 10.5057C142.7 10.2216 142.26 10.0795 141.73 10.0795C141.196 10.0795 140.753 10.2216 140.401 10.5057C140.052 10.7898 139.793 11.1667 139.622 11.6364C139.455 12.1023 139.372 12.6136 139.372 13.1705C139.372 13.7311 139.455 14.2443 139.622 14.7102C139.793 15.1761 140.052 15.5492 140.401 15.8295C140.753 16.1098 141.196 16.25 141.73 16.25ZM151.365 17.6761C150.547 17.6761 149.833 17.4886 149.223 17.1136C148.613 16.7386 148.14 16.214 147.803 15.5398C147.465 14.8655 147.297 14.0777 147.297 13.1761C147.297 12.2708 147.465 11.4792 147.803 10.8011C148.14 10.1231 148.613 9.59659 149.223 9.22159C149.833 8.84659 150.547 8.65909 151.365 8.65909C152.183 8.65909 152.897 8.84659 153.507 9.22159C154.117 9.59659 154.59 10.1231 154.928 10.8011C155.265 11.4792 155.433 12.2708 155.433 13.1761C155.433 14.0777 155.265 14.8655 154.928 15.5398C154.59 16.214 154.117 16.7386 153.507 17.1136C152.897 17.4886 152.183 17.6761 151.365 17.6761ZM151.371 16.25C151.901 16.25 152.34 16.1098 152.689 15.8295C153.037 15.5492 153.295 15.1761 153.462 14.7102C153.632 14.2443 153.717 13.7311 153.717 13.1705C153.717 12.6136 153.632 12.1023 153.462 11.6364C153.295 11.1667 153.037 10.7898 152.689 10.5057C152.34 10.2216 151.901 10.0795 151.371 10.0795C150.837 10.0795 150.393 10.2216 150.041 10.5057C149.693 10.7898 149.433 11.1667 149.263 11.6364C149.096 12.1023 149.013 12.6136 149.013 13.1705C149.013 13.7311 149.096 14.2443 149.263 14.7102C149.433 15.1761 149.693 15.5492 150.041 15.8295C150.393 16.1098 150.837 16.25 151.371 16.25ZM160.989 20.9545C160.295 20.9545 159.699 20.8636 159.199 20.6818C158.703 20.5 158.297 20.2595 157.983 19.9602C157.669 19.661 157.434 19.3333 157.278 18.9773L158.739 18.375C158.841 18.5417 158.977 18.7178 159.148 18.9034C159.322 19.0928 159.557 19.2538 159.852 19.3864C160.152 19.5189 160.536 19.5852 161.006 19.5852C161.65 19.5852 162.182 19.428 162.602 19.1136C163.023 18.803 163.233 18.3068 163.233 17.625V15.9091H163.125C163.023 16.0947 162.875 16.3011 162.682 16.5284C162.492 16.7557 162.231 16.9527 161.898 17.1193C161.564 17.286 161.131 17.3693 160.597 17.3693C159.907 17.3693 159.286 17.2083 158.733 16.8864C158.184 16.5606 157.748 16.0814 157.426 15.4489C157.108 14.8125 156.949 14.0303 156.949 13.1023C156.949 12.1742 157.106 11.3788 157.42 10.7159C157.739 10.053 158.174 9.54545 158.727 9.19318C159.28 8.83712 159.907 8.65909 160.608 8.65909C161.15 8.65909 161.587 8.75 161.92 8.93182C162.254 9.10985 162.513 9.31818 162.699 9.55682C162.888 9.79545 163.034 10.0057 163.136 10.1875H163.261V8.77273H164.926V17.6932C164.926 18.4432 164.752 19.0587 164.403 19.5398C164.055 20.0208 163.583 20.3769 162.989 20.608C162.398 20.839 161.731 20.9545 160.989 20.9545ZM160.972 15.9602C161.46 15.9602 161.873 15.8466 162.21 15.6193C162.551 15.3883 162.809 15.0587 162.983 14.6307C163.161 14.1989 163.25 13.6818 163.25 13.0795C163.25 12.4924 163.163 11.9754 162.989 11.5284C162.814 11.0814 162.559 10.733 162.222 10.483C161.884 10.2292 161.468 10.1023 160.972 10.1023C160.46 10.1023 160.034 10.2348 159.693 10.5C159.352 10.7614 159.095 11.1174 158.92 11.5682C158.75 12.0189 158.665 12.5227 158.665 13.0795C158.665 13.6515 158.752 14.1534 158.926 14.5852C159.1 15.017 159.358 15.3542 159.699 15.5966C160.044 15.839 160.468 15.9602 160.972 15.9602ZM168.903 5.86364V17.5H167.205V5.86364H168.903ZM174.95 17.6761C174.09 17.6761 173.35 17.4924 172.729 17.125C172.111 16.7538 171.634 16.233 171.297 15.5625C170.964 14.8883 170.797 14.0985 170.797 13.1932C170.797 12.2992 170.964 11.5114 171.297 10.8295C171.634 10.1477 172.104 9.61553 172.706 9.23295C173.312 8.85038 174.02 8.65909 174.831 8.65909C175.323 8.65909 175.801 8.74053 176.263 8.90341C176.725 9.06629 177.14 9.32197 177.507 9.67045C177.875 10.0189 178.164 10.4716 178.376 11.0284C178.589 11.5814 178.695 12.2538 178.695 13.0455V13.6477H171.757V12.375H177.03C177.03 11.928 176.939 11.5322 176.757 11.1875C176.575 10.839 176.32 10.5644 175.99 10.3636C175.664 10.1629 175.282 10.0625 174.842 10.0625C174.365 10.0625 173.948 10.1799 173.592 10.4148C173.24 10.6458 172.967 10.9489 172.774 11.3239C172.585 11.6951 172.49 12.0985 172.49 12.5341V13.5284C172.49 14.1117 172.592 14.608 172.797 15.017C173.005 15.4261 173.295 15.7386 173.666 15.9545C174.037 16.1667 174.471 16.2727 174.967 16.2727C175.289 16.2727 175.583 16.2273 175.848 16.1364C176.113 16.0417 176.342 15.9015 176.536 15.7159C176.729 15.5303 176.876 15.3011 176.979 15.0284L178.587 15.3182C178.458 15.7917 178.227 16.2064 177.893 16.5625C177.564 16.9148 177.149 17.1894 176.649 17.3864C176.153 17.5795 175.587 17.6761 174.95 17.6761Z" fill="#262F3D"/>
<defs>
<clipPath id="clip0_620_588">
<rect width="24" height="24" fill="white"/>
</clipPath>
</defs>
</svg>
