<svg width="101" height="68" viewBox="0 0 101 68" fill="none" xmlns="http://www.w3.org/2000/svg">
<g clip-path="url(#clip0_620_578)">
<path d="M50.5 22.4C46.9654 22.4 44.1 19.5346 44.1 16C44.1 12.4654 46.9654 9.60001 50.5 9.60001C54.0346 9.60001 56.9 12.4654 56.9 16C56.9 19.5346 54.0346 22.4 50.5 22.4Z" fill="#CABDFF"/>
<path d="M38.1528 18.5864C36.3184 18.9039 35.0609 20.6436 35.7651 22.3367C36.7483 24.7003 38.3167 26.8062 40.3502 28.4519C43.2578 30.8048 46.9252 32.0621 50.6928 31.9976C54.4604 31.9331 58.0809 30.5508 60.9031 28.0996C62.8767 26.3854 64.3694 24.227 65.268 21.8311C65.9116 20.115 64.593 18.4194 62.7483 18.1649C60.9038 17.9104 59.2476 19.2285 58.3364 20.8236C57.8425 21.6882 57.2014 22.4726 56.4333 23.1397C54.814 24.5462 52.7367 25.3392 50.5751 25.3762C48.4134 25.4132 46.3092 24.6919 44.641 23.3418C43.8496 22.7014 43.181 21.9395 42.6566 21.0923C41.6894 19.5294 39.9873 18.2688 38.1528 18.5864Z" fill="#CABDFF"/>
<path d="M66.3763 17.5921C66.458 16.9518 66.5 16.2996 66.5 15.6378C66.5 7.0013 59.3366 0 50.5 0C41.6634 0 34.5 7.0013 34.5 15.6378C34.5 16.4872 34.5693 17.3207 34.7026 18.1333C35.4375 17.15 36.5845 16.4481 37.8235 16.2346C39.1639 16.0036 40.3822 16.3213 41.4123 16.9152C41.3514 16.498 41.3199 16.0715 41.3199 15.6378C41.3199 10.6826 45.43 6.66558 50.5 6.66558C55.57 6.66558 59.6801 10.6826 59.6801 15.6378C59.6801 15.9646 59.6621 16.2872 59.6274 16.6049C60.6357 15.9759 61.8421 15.6166 63.1902 15.8018C64.4357 15.9729 65.6067 16.6349 66.3763 17.5921Z" fill="#5429FF"/>
</g>
<path d="M10.6705 50.3636V62H9.05682L3.14205 53.4659H3.03409V62H1.27841V50.3636H2.90341L8.82386 58.9091H8.93182V50.3636H10.6705ZM13.3915 62V50.3636H20.6074V51.875H15.1472V55.4205H20.0904V56.9261H15.1472V62H13.3915ZM22.3527 51.875V50.3636H31.3584V51.875H27.7277V62H25.9777V51.875H22.3527ZM38.8857 62H37.0221L41.2096 50.3636H43.238L47.4255 62H45.5619L42.2721 52.4773H42.1812L38.8857 62ZM39.1982 57.4432H45.2437V58.9205H39.1982V57.4432ZM49.1295 62V53.2727H50.7716V54.6591H50.8625C51.0216 54.1894 51.3019 53.8201 51.7034 53.5511C52.1087 53.2784 52.567 53.142 53.0784 53.142C53.1845 53.142 53.3095 53.1458 53.4534 53.1534C53.6011 53.161 53.7167 53.1705 53.8 53.1818V54.8068C53.7318 54.7879 53.6106 54.767 53.4364 54.7443C53.2621 54.7178 53.0879 54.7045 52.9136 54.7045C52.5121 54.7045 52.1542 54.7898 51.8398 54.9602C51.5292 55.1269 51.283 55.3598 51.1011 55.6591C50.9193 55.9545 50.8284 56.2917 50.8284 56.6705V62H49.1295ZM60.0197 53.2727V54.6364H55.2526V53.2727H60.0197ZM56.531 51.1818H58.2299V59.4375C58.2299 59.767 58.2791 60.0152 58.3776 60.1818C58.4761 60.3447 58.603 60.4564 58.7583 60.517C58.9174 60.5739 59.0897 60.6023 59.2753 60.6023C59.4117 60.6023 59.531 60.5928 59.6333 60.5739C59.7356 60.5549 59.8151 60.5398 59.8719 60.5284L60.1787 61.9318C60.0803 61.9697 59.9401 62.0076 59.7583 62.0455C59.5765 62.0871 59.3492 62.1098 59.0765 62.1136C58.6295 62.1212 58.2128 62.0417 57.8265 61.875C57.4401 61.7083 57.1276 61.4508 56.889 61.1023C56.6503 60.7538 56.531 60.3163 56.531 59.7898V51.1818ZM63.0873 50.3636L66.326 59.8409H66.4566L69.6953 50.3636H71.593L67.4055 62H65.3771L61.1896 50.3636H63.0873ZM73.297 62V53.2727H74.9959V62H73.297ZM74.155 51.9261C73.8595 51.9261 73.6058 51.8277 73.3936 51.6307C73.1853 51.4299 73.0811 51.1913 73.0811 50.9148C73.0811 50.6345 73.1853 50.3958 73.3936 50.1989C73.6058 49.9981 73.8595 49.8977 74.155 49.8977C74.4505 49.8977 74.7023 49.9981 74.9107 50.1989C75.1228 50.3958 75.2289 50.6345 75.2289 50.9148C75.2289 51.1913 75.1228 51.4299 74.9107 51.6307C74.7023 51.8277 74.4505 51.9261 74.155 51.9261ZM83.9812 55.4034L82.4414 55.6761C82.377 55.4792 82.2748 55.2917 82.1346 55.1136C81.9982 54.9356 81.8126 54.7898 81.5778 54.6761C81.3429 54.5625 81.0494 54.5057 80.6971 54.5057C80.216 54.5057 79.8145 54.6136 79.4926 54.8295C79.1706 55.0417 79.0096 55.3163 79.0096 55.6534C79.0096 55.9451 79.1176 56.1799 79.3335 56.358C79.5494 56.536 79.8979 56.6818 80.3789 56.7955L81.7653 57.1136C82.5683 57.2992 83.1668 57.5852 83.5607 57.9716C83.9547 58.358 84.1517 58.8598 84.1517 59.4773C84.1517 60 84.0001 60.4659 83.6971 60.875C83.3979 61.2803 82.9793 61.5985 82.4414 61.8295C81.9073 62.0606 81.288 62.1761 80.5835 62.1761C79.6062 62.1761 78.8088 61.9678 78.1914 61.5511C77.574 61.1307 77.1952 60.5341 77.0551 59.7614L78.6971 59.5114C78.7994 59.9394 79.0096 60.2633 79.3278 60.483C79.646 60.6989 80.0607 60.8068 80.5721 60.8068C81.1289 60.8068 81.574 60.6913 81.9073 60.4602C82.2407 60.2254 82.4073 59.9394 82.4073 59.6023C82.4073 59.3295 82.3051 59.1004 82.1005 58.9148C81.8998 58.7292 81.591 58.589 81.1744 58.4943L79.6971 58.1705C78.8827 57.9848 78.2804 57.6894 77.8903 57.2841C77.5039 56.8788 77.3107 56.3655 77.3107 55.7443C77.3107 55.2292 77.4547 54.7784 77.7426 54.392C78.0304 54.0057 78.4282 53.7045 78.9357 53.4886C79.4433 53.2689 80.0248 53.1591 80.6801 53.1591C81.6232 53.1591 82.3657 53.3636 82.9073 53.7727C83.449 54.178 83.807 54.7216 83.9812 55.4034ZM90.2534 53.2727V54.6364H85.4864V53.2727H90.2534ZM86.7648 51.1818H88.4636V59.4375C88.4636 59.767 88.5129 60.0152 88.6114 60.1818C88.7098 60.3447 88.8367 60.4564 88.992 60.517C89.1511 60.5739 89.3235 60.6023 89.5091 60.6023C89.6455 60.6023 89.7648 60.5928 89.867 60.5739C89.9693 60.5549 90.0489 60.5398 90.1057 60.5284L90.4125 61.9318C90.314 61.9697 90.1739 62.0076 89.992 62.0455C89.8102 62.0871 89.583 62.1098 89.3102 62.1136C88.8633 62.1212 88.4466 62.0417 88.0602 61.875C87.6739 61.7083 87.3614 61.4508 87.1227 61.1023C86.8841 60.7538 86.7648 60.3163 86.7648 59.7898V51.1818ZM94.8324 62.1932C94.2794 62.1932 93.7794 62.0909 93.3324 61.8864C92.8855 61.678 92.5313 61.3769 92.2699 60.983C92.0124 60.589 91.8836 60.1061 91.8836 59.5341C91.8836 59.0417 91.9783 58.6364 92.1677 58.3182C92.3571 58 92.6127 57.7481 92.9347 57.5625C93.2567 57.3769 93.6165 57.2367 94.0143 57.142C94.412 57.0473 94.8173 56.9754 95.2302 56.9261C95.7529 56.8655 96.1771 56.8163 96.5029 56.7784C96.8287 56.7367 97.0654 56.6705 97.2131 56.5795C97.3609 56.4886 97.4347 56.3409 97.4347 56.1364V56.0966C97.4347 55.6004 97.2946 55.2159 97.0143 54.9432C96.7377 54.6705 96.3249 54.5341 95.7756 54.5341C95.2037 54.5341 94.7529 54.661 94.4234 54.9148C94.0976 55.1648 93.8722 55.4432 93.7472 55.75L92.1506 55.3864C92.34 54.8561 92.6165 54.428 92.9802 54.1023C93.3476 53.7727 93.7699 53.5341 94.2472 53.3864C94.7245 53.2348 95.2264 53.1591 95.7529 53.1591C96.1014 53.1591 96.4707 53.2008 96.8609 53.2841C97.2548 53.3636 97.6222 53.5114 97.9631 53.7273C98.3078 53.9432 98.59 54.2519 98.8097 54.6534C99.0294 55.0511 99.1393 55.5682 99.1393 56.2045V62H97.4802V60.8068H97.412C97.3021 61.0265 97.1374 61.2424 96.9177 61.4545C96.698 61.6667 96.4158 61.8428 96.0711 61.983C95.7264 62.1231 95.3135 62.1932 94.8324 62.1932ZM95.2018 60.8295C95.6715 60.8295 96.073 60.7367 96.4063 60.5511C96.7434 60.3655 96.9991 60.1231 97.1734 59.8239C97.3514 59.5208 97.4404 59.197 97.4404 58.8523V57.7273C97.3798 57.7879 97.2624 57.8447 97.0881 57.8977C96.9177 57.947 96.7226 57.9905 96.5029 58.0284C96.2832 58.0625 96.0692 58.0947 95.8609 58.125C95.6525 58.1515 95.4783 58.1742 95.3381 58.1932C95.0086 58.2348 94.7074 58.3049 94.4347 58.4034C94.1658 58.5019 93.9499 58.6439 93.787 58.8295C93.6279 59.0114 93.5484 59.2538 93.5484 59.5568C93.5484 59.9773 93.7037 60.2955 94.0143 60.5114C94.3249 60.7235 94.7207 60.8295 95.2018 60.8295Z" fill="#262F3D"/>
<defs>
<clipPath id="clip0_620_578">
<rect width="32" height="32" fill="white" transform="translate(34.5)"/>
</clipPath>
</defs>
</svg>
